name rise49.25peak52.1432fall72.8391.mot
datacolumns 19
datarows 32
range 5.11499100000000 5.16664500000000
endheader
time	ground_force1_vx	ground_force1_vy	ground_force1_vz	ground_force1_px	ground_force1_py	ground_force1_pz	ground_force2_vx	ground_force2_vy	ground_force2_vz	ground_force2_px	ground_force2_py	ground_force2_pz	ground_torque1_x	ground_torque1_y	ground_torque1_z	ground_torque2_x	ground_torque2_y	ground_torque2_z	
5.11499100000000	-6.16953100000000	41.41082800000000	-8.67188900000000	0.29791400000000	0.00000000000000	0.09976300000000	-52.22595800000000	806.10524599999997	-58.38705000000000	0.12310100000000	0.00000000000000	-0.10503700000000	0.00000000000000	-5.23834500000000	0.00000000000000	0.00000000000000	-22.38978100000000	0.00000000000000	
5.11664900000000	-6.77849500000000	48.46755500000000	-9.74957300000000	0.30492900000000	0.00000000000000	0.10000000000000	-53.10314000000000	804.00893599999995	-58.03720500000000	0.12229600000000	0.00000000000000	-0.10492500000000	0.00000000000000	-5.98339100000000	0.00000000000000	0.00000000000000	-22.40189100000000	0.00000000000000	
5.11831400000000	-7.27157700000000	55.59377000000000	-10.72771000000000	0.31121500000000	0.00000000000000	0.10023500000000	-53.99319600000000	801.77686100000005	-57.66415500000000	0.12149400000000	0.00000000000000	-0.10481000000000	0.00000000000000	-6.68227600000000	0.00000000000000	0.00000000000000	-22.41509600000000	0.00000000000000	
5.12000400000000	-7.63096300000000	62.69569800000000	-11.58316700000000	0.31688400000000	0.00000000000000	0.10046800000000	-54.89514800000000	799.40577199999996	-57.26779200000000	0.12069600000000	0.00000000000000	-0.10469100000000	0.00000000000000	-7.31840100000000	0.00000000000000	0.00000000000000	-22.42925200000000	0.00000000000000	
5.12165000000000	-7.84550100000000	69.70271400000000	-12.30052800000000	0.32202500000000	0.00000000000000	0.10069900000000	-55.80792700000000	796.89238699999999	-56.84803000000000	0.11990100000000	0.00000000000000	-0.10456800000000	0.00000000000000	-7.87988000000000	0.00000000000000	0.00000000000000	-22.44419600000000	0.00000000000000	
5.12331100000000	-7.91064600000000	76.56946400000000	-12.87220800000000	0.32671300000000	0.00000000000000	0.10092900000000	-56.73036300000000	794.23339199999998	-56.40481000000000	0.11911000000000	0.00000000000000	-0.10444200000000	0.00000000000000	-8.35977900000000	0.00000000000000	0.00000000000000	-22.45974400000000	0.00000000000000	
5.12499300000000	-7.82788700000000	83.27555200000000	-13.29789100000000	0.33100700000000	0.00000000000000	0.10115800000000	-57.66119600000000	791.42545399999995	-55.93809700000000	0.11832300000000	0.00000000000000	-0.10431200000000	0.00000000000000	-8.75591100000000	0.00000000000000	0.00000000000000	-22.47569100000000	0.00000000000000	
5.12664400000000	-7.60377700000000	89.82323599999999	-13.58348300000000	0.33495700000000	0.00000000000000	0.10138500000000	-58.59906900000000	788.46522900000002	-55.44788900000000	0.11754100000000	0.00000000000000	-0.10417900000000	0.00000000000000	-9.07026900000000	0.00000000000000	0.00000000000000	-22.49181500000000	0.00000000000000	
5.12831100000000	-7.24872300000000	96.23364700000000	-13.73972700000000	0.33860500000000	0.00000000000000	0.10161100000000	-59.54253400000000	785.34936700000003	-54.93421000000000	0.11676400000000	0.00000000000000	-0.10404200000000	0.00000000000000	-9.30821600000000	0.00000000000000	0.00000000000000	-22.50787300000000	0.00000000000000	
5.12999300000000	-6.77567000000000	102.54212200000001	-13.78066800000000	0.34198500000000	0.00000000000000	0.10183700000000	-60.49005100000000	782.07452799999999	-54.39711700000000	0.11599100000000	0.00000000000000	-0.10390100000000	0.00000000000000	-9.47753300000000	0.00000000000000	0.00000000000000	-22.52360200000000	0.00000000000000	
5.13164700000000	-6.19881800000000	108.79318300000000	-13.72211100000000	0.34512900000000	0.00000000000000	0.10206100000000	-61.43999100000000	778.63738899999998	-53.83670100000000	0.11522400000000	0.00000000000000	-0.10375700000000	0.00000000000000	-9.58743800000000	0.00000000000000	0.00000000000000	-22.53872300000000	0.00000000000000	
5.13331200000000	-5.53245900000000	115.03563100000000	-13.58020400000000	0.34806000000000	0.00000000000000	0.10228500000000	-62.39063900000000	775.03465600000004	-53.25308600000000	0.11446200000000	0.00000000000000	-0.10360900000000	0.00000000000000	-9.64765300000000	0.00000000000000	0.00000000000000	-22.55293900000000	0.00000000000000	
5.13498900000000	-4.79000700000000	121.31813500000000	-13.37024400000000	0.35080100000000	0.00000000000000	0.10250700000000	-63.34019700000000	771.26308100000006	-52.64643400000000	0.11370700000000	0.00000000000000	-0.10345800000000	0.00000000000000	-9.66759900000000	0.00000000000000	0.00000000000000	-22.56593500000000	0.00000000000000	
5.13664900000000	-3.98327900000000	127.68556500000000	-13.10574300000000	0.35336900000000	0.00000000000000	0.10272900000000	-64.28678600000001	767.31946700000003	-52.01694500000000	0.11295700000000	0.00000000000000	-0.10330300000000	0.00000000000000	-9.65574300000000	0.00000000000000	0.00000000000000	-22.57738300000000	0.00000000000000	
5.13831500000000	-3.12201500000000	134.17623300000000	-12.79780100000000	0.35578200000000	0.00000000000000	0.10295000000000	-65.22845200000000	763.20069100000001	-51.36485500000000	0.11221500000000	0.00000000000000	-0.10314500000000	0.00000000000000	-9.61914700000000	0.00000000000000	0.00000000000000	-22.58693700000000	0.00000000000000	
5.13998900000000	-2.21365300000000	140.82009300000001	-12.45477100000000	0.35805300000000	0.00000000000000	0.10317000000000	-66.16316900000000	758.90371700000003	-50.69044500000000	0.11147900000000	0.00000000000000	-0.10298300000000	0.00000000000000	-9.56319500000000	0.00000000000000	0.00000000000000	-22.59423800000000	0.00000000000000	
5.14164300000000	-1.26331600000000	147.63785100000001	-12.08218900000000	0.36019300000000	0.00000000000000	0.10338900000000	-67.08884100000000	754.42560800000001	-49.99403400000000	0.11075100000000	0.00000000000000	-0.10281800000000	0.00000000000000	-9.49150200000000	0.00000000000000	0.00000000000000	-22.59891600000000	0.00000000000000	
5.14331400000000	-0.27398600000000	154.64090200000001	-11.68292700000000	0.36221300000000	0.00000000000000	0.10360600000000	-68.00331300000001	749.76355100000001	-49.27598500000000	0.11003000000000	0.00000000000000	-0.10264900000000	0.00000000000000	-9.40597200000000	0.00000000000000	0.00000000000000	-22.60058600000000	0.00000000000000	
5.14498900000000	0.75319500000000	161.83194599999999	-11.25752000000000	0.36412200000000	0.00000000000000	0.10382300000000	-68.90437100000000	744.91486999999995	-48.53670400000000	0.10931700000000	0.00000000000000	-0.10247700000000	0.00000000000000	-9.30698300000000	0.00000000000000	0.00000000000000	-22.59885700000000	0.00000000000000	
5.14664500000000	1.81853300000000	169.20609899999999	-10.80460600000000	0.36592700000000	0.00000000000000	0.10403900000000	-69.78974900000000	739.87704399999996	-47.77664000000000	0.10861300000000	0.00000000000000	-0.10230100000000	0.00000000000000	-9.19364400000000	0.00000000000000	0.00000000000000	-22.59332600000000	0.00000000000000	
5.14831100000000	2.92334900000000	176.75233900000001	-10.32143500000000	0.36763600000000	0.00000000000000	0.10425300000000	-70.65713599999999	734.64773100000002	-46.99628800000000	0.10791700000000	0.00000000000000	-0.10212100000000	0.00000000000000	-9.06411400000000	0.00000000000000	0.00000000000000	-22.58358300000000	0.00000000000000	
5.14999300000000	4.06954100000000	184.45511900000000	-9.80438200000000	0.36925400000000	0.00000000000000	0.10446600000000	-71.50418200000000	729.22478300000000	-46.19618400000000	0.10723000000000	0.00000000000000	-0.10193900000000	0.00000000000000	-8.91593100000000	0.00000000000000	0.00000000000000	-22.56921200000000	0.00000000000000	
5.15164700000000	5.25918600000000	192.29597699999999	-9.24943800000000	0.37078600000000	0.00000000000000	0.10467800000000	-72.32850400000000	723.60626600000001	-45.37691300000000	0.10655100000000	0.00000000000000	-0.10175300000000	0.00000000000000	-8.74632700000000	0.00000000000000	0.00000000000000	-22.54979300000000	0.00000000000000	
5.15331000000000	6.49418700000000	200.25505200000001	-8.65263900000000	0.37223600000000	0.00000000000000	0.10488900000000	-73.12769100000000	717.79047800000001	-44.53910200000000	0.10588300000000	0.00000000000000	-0.10156300000000	0.00000000000000	-8.55252000000000	0.00000000000000	0.00000000000000	-22.52490200000000	0.00000000000000	
5.15498800000000	7.77599800000000	208.31239199999999	-8.01042300000000	0.37360900000000	0.00000000000000	0.10509800000000	-73.89931400000000	711.77597000000003	-43.68342200000000	0.10522300000000	0.00000000000000	-0.10137100000000	0.00000000000000	-8.33194200000000	0.00000000000000	0.00000000000000	-22.49411300000000	0.00000000000000	
5.15664200000000	9.10542400000000	216.44901500000000	-7.31988700000000	0.37490600000000	0.00000000000000	0.10530600000000	-74.64093200000001	705.56155400000000	-42.81058700000000	0.10457300000000	0.00000000000000	-0.10117400000000	0.00000000000000	-8.08242900000000	0.00000000000000	0.00000000000000	-22.45700000000000	0.00000000000000	
5.15831200000000	10.48249600000000	224.64767900000001	-6.57895900000000	0.37613100000000	0.00000000000000	0.10551200000000	-75.35009599999999	699.14632500000005	-41.92135800000000	0.10393300000000	0.00000000000000	-0.10097500000000	0.00000000000000	-7.80233600000000	0.00000000000000	0.00000000000000	-22.41314100000000	0.00000000000000	
5.15999000000000	11.90642600000000	232.89337900000001	-5.78648500000000	0.37728600000000	0.00000000000000	0.10571600000000	-76.02436200000000	692.52967000000001	-41.01653500000000	0.10330300000000	0.00000000000000	-0.10077200000000	0.00000000000000	-7.49060700000000	0.00000000000000	0.00000000000000	-22.36211300000000	0.00000000000000	
5.16164500000000	13.37561600000000	241.17357300000000	-4.94223400000000	0.37837300000000	0.00000000000000	0.10591900000000	-76.66129300000000	685.71127799999999	-40.09696100000000	0.10268300000000	0.00000000000000	-0.10056700000000	0.00000000000000	-7.14678400000000	0.00000000000000	0.00000000000000	-22.30350200000000	0.00000000000000	
5.16331300000000	14.88772200000000	249.47818699999999	-4.04684300000000	0.37939300000000	0.00000000000000	0.10612000000000	-77.25847000000000	678.69114999999999	-39.16352300000000	0.10207200000000	0.00000000000000	-0.10035800000000	0.00000000000000	-6.77098500000000	0.00000000000000	0.00000000000000	-22.23689800000000	0.00000000000000	
5.16498300000000	16.43975100000000	257.79944000000000	-3.10172300000000	0.38034800000000	0.00000000000000	0.10631900000000	-77.81350000000000	671.46960200000001	-38.21714600000000	0.10147100000000	0.00000000000000	-0.10014600000000	0.00000000000000	-6.36383700000000	0.00000000000000	0.00000000000000	-22.16189900000000	0.00000000000000	
5.16664500000000	18.02818200000000	266.13154500000002	-2.10892400000000	0.38123700000000	0.00000000000000	0.10651600000000	-78.32402100000000	664.04727500000001	-37.25879700000000	0.10088000000000	0.00000000000000	-0.09993000000000	0.00000000000000	-5.92640600000000	0.00000000000000	0.00000000000000	-22.07811700000000	0.00000000000000	
